<svg width="512" height="512" viewBox="0 0 512 512" fill="none" xmlns="http://www.w3.org/2000/svg">
  <rect width="512" height="512" rx="120" fill="#120C09"/>
  <rect x="36" y="36" width="440" height="440" rx="100" fill="url(#paint0_linear)"/>
  <circle cx="256" cy="196" r="108" fill="#FFF7ED"/>
  <path d="M181 214C181 174.235 213.235 142 253 142H292C313.539 142 331 159.461 331 181V181C331 202.539 313.539 220 292 220H221" stroke="#C2410C" stroke-width="26" stroke-linecap="round"/>
  <path d="M186 310C186 270.235 218.235 238 258 238H290C311.539 238 329 255.461 329 277V277C329 298.539 311.539 316 290 316H222" stroke="#7C2D12" stroke-width="26" stroke-linecap="round"/>
  <path d="M157 390C193.667 358 226.667 342 256 342C285.333 342 318.333 358 355 390" stroke="#FFF7ED" stroke-width="28" stroke-linecap="round"/>
  <defs>
    <linearGradient id="paint0_linear" x1="88" y1="64" x2="430" y2="458" gradientUnits="userSpaceOnUse">
      <stop stop-color="#EA580C"/>
      <stop offset="1" stop-color="#7C2D12"/>
    </linearGradient>
  </defs>
</svg>
